<svg viewBox="0 0 900 300" xmlns="http://www.w3.org/2000/svg" font-family="ui-monospace, Menlo, Consolas, monospace">
  <rect width="900" height="300" fill="#0b1120"/>

  <!-- Before: fragmented -->
  <text x="36" y="40" fill="#94a3bf" font-size="13" letter-spacing="2">BEFORE · SILOED</text>
  <g font-size="12" fill="#eaeef6" text-anchor="middle">
    <rect x="36" y="80" width="130" height="42" rx="4" fill="none" stroke="#94a3bf" stroke-width="1.2"/>
    <text x="101" y="105">SAST</text>
    <rect x="36" y="140" width="130" height="42" rx="4" fill="none" stroke="#94a3bf" stroke-width="1.2"/>
    <text x="101" y="165">SBOM</text>
    <rect x="36" y="200" width="130" height="42" rx="4" fill="none" stroke="#94a3bf" stroke-width="1.2"/>
    <text x="101" y="225">Host Scan</text>
  </g>
  <text x="101" y="270" fill="#94a3bf" font-size="10.5" text-anchor="middle">siloed, manually stitched</text>

  <line x1="222" y1="24" x2="222" y2="284" stroke="#94a3bf" stroke-opacity="0.18"/>

  <!-- After: unified -->
  <text x="256" y="40" fill="#c9a227" font-size="13" letter-spacing="2">AFTER · UNIFIED</text>
  <g font-size="12" fill="#eaeef6" text-anchor="middle">
    <rect x="256" y="80" width="120" height="42" rx="4" fill="none" stroke="#c9a227" stroke-width="1.3"/>
    <text x="316" y="105">SAST</text>
    <rect x="256" y="140" width="120" height="42" rx="4" fill="none" stroke="#c9a227" stroke-width="1.3"/>
    <text x="316" y="165">SBOM</text>
    <rect x="256" y="200" width="120" height="42" rx="4" fill="none" stroke="#c9a227" stroke-width="1.3"/>
    <text x="316" y="225">Host Scan</text>
  </g>

  <g stroke="#c9a227" stroke-width="1.3" fill="none">
    <path d="M376 101 L470 151"/>
    <line x1="376" y1="161" x2="470" y2="161"/>
    <path d="M376 221 L470 171"/>
  </g>

  <circle cx="510" cy="161" r="40" fill="#0e1730" stroke="#c9a227" stroke-width="1.5"/>
  <text x="510" y="157" fill="#e8c55c" font-size="12" text-anchor="middle">Polisana</text>
  <text x="510" y="172" fill="#94a3bf" font-size="9" text-anchor="middle">RAG advisor</text>

  <line x1="550" y1="161" x2="650" y2="161" stroke="#c9a227" stroke-width="1.3"/>

  <rect x="650" y="130" width="210" height="62" rx="4" fill="none" stroke="#c9a227" stroke-width="1.3"/>
  <text x="755" y="155" fill="#eaeef6" font-size="12" text-anchor="middle">Role-based dashboards</text>
  <text x="755" y="174" fill="#94a3bf" font-size="10" text-anchor="middle">CISOs · Security managers</text>
</svg>
