<svg viewBox="0 0 900 260" xmlns="http://www.w3.org/2000/svg" font-family="ui-monospace, Menlo, Consolas, monospace">
  <rect width="900" height="260" fill="#0b1120"/>
  <text x="36" y="40" fill="#94a3bf" font-size="13" letter-spacing="3">SSDLC · AI ERA</text>

  <g stroke="#94a3bf" stroke-width="1.2" stroke-opacity="0.5">
    <line x1="164" y1="150" x2="204" y2="150"/>
    <line x1="322" y1="150" x2="362" y2="150"/>
    <line x1="480" y1="150" x2="520" y2="150"/>
    <line x1="638" y1="150" x2="678" y2="150"/>
    <line x1="796" y1="150" x2="820" y2="150"/>
  </g>

  <g font-size="13" fill="#eaeef6" text-anchor="middle">
    <rect x="44" y="124" width="120" height="52" rx="4" fill="none" stroke="#94a3bf" stroke-width="1.3"/>
    <text x="104" y="155">Plan</text>

    <rect x="204" y="124" width="118" height="52" rx="4" fill="none" stroke="#c9a227" stroke-width="1.5"/>
    <text x="263" y="155">Code · AI</text>

    <rect x="362" y="124" width="118" height="52" rx="4" fill="none" stroke="#c9a227" stroke-width="1.5"/>
    <text x="421" y="155">Review · AI</text>

    <rect x="520" y="124" width="118" height="52" rx="4" fill="none" stroke="#94a3bf" stroke-width="1.3"/>
    <text x="579" y="155">Build</text>

    <rect x="678" y="124" width="118" height="52" rx="4" fill="none" stroke="#94a3bf" stroke-width="1.3"/>
    <text x="737" y="155">Test</text>

    <rect x="820" y="124" width="44" height="52" rx="4" fill="none" stroke="#94a3bf" stroke-width="1.3"/>
    <text x="842" y="155" font-size="11">Ship</text>
  </g>

  <g stroke="#e8c55c" stroke-width="1">
    <line x1="263" y1="98" x2="263" y2="124"/>
    <line x1="421" y1="98" x2="421" y2="124"/>
  </g>
  <circle cx="263" cy="94" r="4" fill="#e8c55c"/>
  <circle cx="421" cy="94" r="4" fill="#e8c55c"/>
  <text x="263" y="80" fill="#e8c55c" font-size="10" text-anchor="middle" letter-spacing="0.5">NEW ATTACK SURFACE</text>
  <text x="421" y="80" fill="#e8c55c" font-size="10" text-anchor="middle" letter-spacing="0.5">AI-ASSISTED TRIAGE</text>
</svg>
