<svg viewBox="0 0 900 300" xmlns="http://www.w3.org/2000/svg" font-family="ui-monospace, Menlo, Consolas, monospace">
  <rect width="900" height="300" fill="#0b1120"/>

  <!-- Left: gate model -->
  <text x="36" y="42" fill="#94a3bf" font-size="13" letter-spacing="3">BEFORE · GATE</text>

  <rect x="36" y="130" width="110" height="52" rx="4" fill="none" stroke="#94a3bf" stroke-width="1.4"/>
  <text x="91" y="161" fill="#eaeef6" font-size="14" text-anchor="middle">Dev</text>

  <line x1="146" y1="156" x2="234" y2="156" stroke="#94a3bf" stroke-width="1.4" stroke-dasharray="5 5"/>

  <rect x="234" y="104" width="16" height="104" fill="#94a3bf" opacity="0.55"/>
  <rect x="250" y="104" width="16" height="104" fill="#94a3bf" opacity="0.3"/>
  <text x="250" y="230" fill="#94a3bf" font-size="11" text-anchor="middle" letter-spacing="1">SEC GATE</text>

  <line x1="266" y1="156" x2="354" y2="156" stroke="#94a3bf" stroke-width="1.4" stroke-dasharray="5 5"/>

  <rect x="354" y="130" width="110" height="52" rx="4" fill="none" stroke="#94a3bf" stroke-width="1.4"/>
  <text x="409" y="161" fill="#eaeef6" font-size="14" text-anchor="middle">Ship</text>

  <!-- divider -->
  <line x1="490" y1="24" x2="490" y2="284" stroke="#94a3bf" stroke-opacity="0.18"/>

  <!-- Right: embedded model -->
  <text x="524" y="42" fill="#c9a227" font-size="13" letter-spacing="3">AFTER · EMBEDDED</text>

  <rect x="524" y="130" width="110" height="52" rx="4" fill="none" stroke="#c9a227" stroke-width="1.4"/>
  <text x="579" y="161" fill="#eaeef6" font-size="14" text-anchor="middle">Dev</text>

  <line x1="634" y1="156" x2="798" y2="156" stroke="#c9a227" stroke-width="1.4"/>

  <circle cx="716" cy="156" r="24" fill="#0e1730" stroke="#c9a227" stroke-width="1.4"/>
  <text x="716" y="160" fill="#e8c55c" font-size="10" text-anchor="middle" letter-spacing="1">SEC</text>

  <rect x="798" y="130" width="66" height="52" rx="4" fill="none" stroke="#c9a227" stroke-width="1.4"/>
  <text x="831" y="161" fill="#eaeef6" font-size="14" text-anchor="middle">Ship</text>
</svg>
